<?xml version="1.0" encoding="UTF-8" standalone="no"?>
<!-- Generator: Adobe Illustrator 25.0.0, SVG Export Plug-In . SVG Version: 6.00 Build 0)  -->

<svg
   version="1.0"
   id="svg163547"
   x="0px"
   y="0px"
   width="5.2501273mm"
   height="20.249928mm"
   viewBox="0 0 19.843 76.535163"
   enable-background="new 0 0 19.84258 76.53516"
   xml:space="preserve"
   sodipodi:docname="BigSlider.svg"
   inkscape:version="1.3-dev (77bc73e, 2022-05-18)"
   xmlns:inkscape="http://www.inkscape.org/namespaces/inkscape"
   xmlns:sodipodi="http://sodipodi.sourceforge.net/DTD/sodipodi-0.dtd"
   xmlns="http://www.w3.org/2000/svg"
   xmlns:svg="http://www.w3.org/2000/svg"><defs
   id="defs1" />
<sodipodi:namedview
   bordercolor="#666666"
   borderopacity="1.0"
   fit-margin-bottom="0"
   fit-margin-left="2"
   fit-margin-right="2"
   fit-margin-top="0"
   id="base"
   inkscape:current-layer="layer1"
   inkscape:cx="12.691948"
   inkscape:cy="40.563211"
   inkscape:document-units="mm"
   inkscape:pageopacity="0.0"
   inkscape:pageshadow="2"
   inkscape:window-height="1190"
   inkscape:window-maximized="0"
   inkscape:window-width="1656"
   inkscape:window-x="159"
   inkscape:window-y="130"
   inkscape:zoom="7.839616"
   pagecolor="#ffffff"
   showgrid="false"
   inkscape:showpageshadow="2"
   inkscape:pagecheckerboard="0"
   inkscape:deskcolor="#d1d1d1">
	</sodipodi:namedview>
<g
   id="layer1"
   transform="translate(-105.35713,-95.267905)"
   inkscape:groupmode="layer"
   inkscape:label="Layer 1">
	<path
   id="path159840-0"
   inkscape:connector-curvature="0"
   d="m 122.6386,97.222933 v 72.879417 c 0,1.00951 -1.583,1.82787 -3.53577,1.82787 h -9.37831 c -1.95274,0 -3.53574,-0.81836 -3.53574,-1.82787 V 97.222933 c 0,-1.00951 1.583,-1.82787 3.53574,-1.82787 h 9.37831 c 1.95277,1e-5 3.53577,0.81837 3.53577,1.82787 z"
   style="stroke-width:1.39081;fill:#5e5d5d;fill-opacity:1"
   transform="translate(-3.5522425e-6)"
   inkscape:label="gray" /><path
   id="path159840-00"
   inkscape:connector-curvature="0"
   d="m 123.91417,97.350486 v 72.879434 c 0,1.00951 -0.76057,1.82787 -1.6988,1.82787 h -4.5059 c -0.93822,0 -1.69879,-0.81836 -1.69879,-1.82787 V 97.350486 c 0,-1.00951 0.76057,-1.82787 1.69879,-1.82787 h 4.5059 c 0.93823,1e-5 1.6988,0.81837 1.6988,1.82787 z"
   style="display:inline;fill:#abadad;fill-opacity:1;stroke-width:0.964043"
   inkscape:label="light" /><path
   id="path159840"
   inkscape:connector-curvature="0"
   d="m 123.50331,95.522825 v 76.280425 c 0,1.05662 -1.583,1.91317 -3.53577,1.91317 h -9.37831 c -1.95274,0 -3.53574,-0.85655 -3.53574,-1.91317 V 95.522825 c 0,-1.05662 1.583,-1.91317 3.53574,-1.91317 h 9.37831 c 1.95277,1.1e-5 3.53577,0.856561 3.53577,1.91317 z"
   style="display:inline;stroke-width:1.42289"
   inkscape:label="black" />
</g>
</svg>
