<?xml version="1.0" encoding="UTF-8" standalone="no"?>
<!-- Generator: Adobe Illustrator 25.2.3, SVG Export Plug-In . SVG Version: 6.00 Build 0)  -->

<svg
   version="1.0"
   id="svg15246"
   x="0px"
   y="0px"
   width="23.7px"
   height="23.7px"
   viewBox="0 0 23.7 23.7"
   enable-background="new 0 0 23.7 23.7"
   xml:space="preserve"
   sodipodi:docname="PJ301M_dark.svg"
   inkscape:version="1.2.1 (9c6d41e4, 2022-07-14)"
   xmlns:inkscape="http://www.inkscape.org/namespaces/inkscape"
   xmlns:sodipodi="http://sodipodi.sourceforge.net/DTD/sodipodi-0.dtd"
   xmlns="http://www.w3.org/2000/svg"
   xmlns:svg="http://www.w3.org/2000/svg"><defs
   id="defs203" />

<linearGradient
   id="SVGID_2_"
   gradientUnits="userSpaceOnUse"
   x1="479.22113"
   y1="-3610.97144"
   x2="501.73505"
   y2="-3610.97144"
   gradientTransform="matrix(0 1 -1 0 -4548.06152 478.50922)">
	<stop
   offset="0.00559"
   style="stop-color:#FFFFFF"
   id="stop11" />
	<stop
   offset="1"
   style="stop-color:#454545"
   id="stop13" />
</linearGradient>


<linearGradient
   id="SVGID_3_"
   gradientUnits="userSpaceOnUse"
   x1="-8735.91797"
   y1="3072.73706"
   x2="-8718.08887"
   y2="3072.73706"
   gradientTransform="matrix(0 -1 1 0 -4009.8269 -7758.01611)">
	<stop
   offset="0.00559"
   style="stop-color:#FFFFFF"
   id="stop20" />
	<stop
   offset="1"
   style="stop-color:#454545"
   id="stop22" />
</linearGradient>



<linearGradient
   id="SVGID_4_"
   gradientUnits="userSpaceOnUse"
   x1="-7349.92383"
   y1="4699.24609"
   x2="-7349.92383"
   y2="4714.5083"
   gradientTransform="matrix(-1 0 0 1 -8287.01367 -3737.88989)">
	<stop
   offset="0"
   style="stop-color:#FFFEFE"
   id="stop31" />
	<stop
   offset="1"
   style="stop-color:#5E5E5E"
   id="stop33" />
</linearGradient>


<linearGradient
   id="SVGID_5_"
   gradientUnits="userSpaceOnUse"
   x1="-7349.92383"
   y1="4712.67285"
   x2="-7349.92383"
   y2="4701.08154"
   gradientTransform="matrix(-1 0 0 1 -8287.01367 -3737.88989)">
	<stop
   offset="0"
   style="stop-color:#FFFEFE"
   id="stop40" />
	<stop
   offset="1"
   style="stop-color:#383636"
   id="stop42" />
</linearGradient>


<sodipodi:namedview
   bordercolor="#666666"
   borderopacity="1.0"
   fit-margin-bottom="0"
   fit-margin-left="0"
   fit-margin-right="0"
   fit-margin-top="0"
   id="base"
   inkscape:current-layer="g200"
   inkscape:cx="13.158195"
   inkscape:cy="21.26288"
   inkscape:document-units="mm"
   inkscape:pageopacity="0.0"
   inkscape:pageshadow="2"
   inkscape:snap-bbox="true"
   inkscape:snap-bbox-midpoints="true"
   inkscape:snap-nodes="false"
   inkscape:snap-others="false"
   inkscape:window-height="818"
   inkscape:window-maximized="0"
   inkscape:window-width="1109"
   inkscape:window-x="420"
   inkscape:window-y="547"
   inkscape:zoom="10.487761"
   pagecolor="#ffffff"
   showgrid="false"
   units="px"
   inkscape:pagecheckerboard="0"
   inkscape:showpageshadow="2"
   inkscape:deskcolor="#d1d1d1">
	</sodipodi:namedview>




<linearGradient
   id="SVGID_11_"
   gradientUnits="userSpaceOnUse"
   x1="-8782.6582"
   y1="3039.62085"
   x2="-8764.83008"
   y2="3039.62085"
   gradientTransform="matrix(0 -1 1 0 -4009.8269 -7758.01611)">
	<stop
   offset="0"
   style="stop-color:#8C8B8B"
   id="stop93" />
	<stop
   offset="1"
   style="stop-color:#454545"
   id="stop95" />
</linearGradient>






<g
   id="g200">
	<g
   id="g145">
		
			<linearGradient
   id="SVGID_16_"
   gradientUnits="userSpaceOnUse"
   x1="-602.15857"
   y1="1785.69116"
   x2="-578.78363"
   y2="1785.69116"
   gradientTransform="matrix(0 1 1 0 -1773.84119 602.39905)">
			<stop
   offset="0"
   style="stop-color:#828181"
   id="stop138" />
			<stop
   offset="1"
   style="stop-color:#575757"
   id="stop140" />
		</linearGradient>
		<path
   fill="url(#SVGID_16_)"
   d="M11.85025,23.61541c-6.44467,0-11.68796-5.24279-11.68796-11.68697    c0-6.44517,5.24329-11.68796,11.68796-11.68796s11.68747,5.24279,11.68747,11.68797    C23.53772,18.37262,18.29493,23.61541,11.85025,23.61541z"
   id="path143" />
	</g>
	
		<linearGradient
   id="SVGID_17_"
   gradientUnits="userSpaceOnUse"
   x1="1062.06897"
   y1="-4091.68994"
   x2="1084.2738"
   y2="-4091.68994"
   gradientTransform="matrix(0 1 -1 0 -4079.83984 -1061.23169)">
		<stop
   offset="0.00559"
   style="stop-color:#FFFFFF"
   id="stop147" />
		<stop
   offset="1"
   style="stop-color:#7A7A7A"
   id="stop149" />
	</linearGradient>
	<circle
   fill="url(#SVGID_17_)"
   cx="11.85"
   cy="11.93965"
   r="11.10243"
   id="circle152"
   style="display:inline;fill:#4d4d4d" />
	<circle
   fill="#e0e0e0"
   cx="11.85"
   cy="11.93965"
   r="10.44346"
   id="circle154"
   style="display:inline;fill:#3c3c3c;fill-opacity:1" />
	
		<linearGradient
   id="SVGID_18_"
   gradientUnits="userSpaceOnUse"
   x1="58.86181"
   y1="-54.6409"
   x2="58.86181"
   y2="-51.86816"
   gradientTransform="matrix(1 0 0 -1 -47.00625 -41.32658)">
		<stop
   offset="0"
   style="stop-color:#FFFBFD"
   id="stop156" />
		<stop
   offset="1"
   style="stop-color:#808080"
   id="stop158" />
	</linearGradient>
	<path
   fill="url(#SVGID_18_)"
   d="M 1.52136,10.54158 1.09168,10.95843 C 0.65175,11.5374 0.6549,12.3395 1.09936,12.915 l 0.39828,0.36948 20.70001,0.02984 0.40244,-0.38429 c 0.45989,-0.57286 0.46323,-1.38741 0.008,-1.96402 L 22.19765,10.565 Z"
   id="path161"
   style="display:inline;fill:#6e6e6e;fill-opacity:1" />
	
		<linearGradient
   id="SVGID_19_"
   gradientUnits="userSpaceOnUse"
   x1="-1240.79248"
   y1="-381.89734"
   x2="-1223.31567"
   y2="-381.89734"
   gradientTransform="matrix(0 -1 -1 0 -370.04718 -1220.1261)">
		<stop
   offset="0"
   style="stop-color:#646464;stop-opacity:1;"
   id="stop163" />
		<stop
   offset="1"
   style="stop-color:#323232;stop-opacity:1;"
   id="stop165" />
	</linearGradient>
	<circle
   fill="url(#SVGID_19_)"
   cx="11.85015"
   cy="11.92791"
   r="8.73843"
   id="circle168"
   style="display:inline" />
	<circle
   fill="#1f1f1f"
   cx="11.85015"
   cy="11.92791"
   r="8.1665602"
   id="circle170"
   style="display:inline" />
	<path
   opacity="0.28"
   fill="#404040"
   d="m 11.85015,4.29678 c 4.21318,0 7.62864,3.78218 7.62864,8.44773 0,4.66555 -3.41546,9.28764 -7.62864,9.28764 -4.21318,0 -7.62864,-4.62209 -7.62864,-9.28764 0,-4.66555 3.41546,-8.44773 7.62864,-8.44773 z"
   id="path172"
   style="display:inline" />
	
		<linearGradient
   id="SVGID_20_"
   gradientUnits="userSpaceOnUse"
   x1="-1884.86365"
   y1="21.48288"
   x2="-1884.86365"
   y2="6.22048"
   gradientTransform="matrix(-1 0 0 -1 -1873.01343 25.77966)">
		<stop
   offset="0"
   style="stop-color:#FFFEFE"
   id="stop174" />
		<stop
   offset="1"
   style="stop-color:#545454"
   id="stop176" />
	</linearGradient>
	<circle
   fill="url(#SVGID_20_)"
   cx="11.85015"
   cy="11.92798"
   r="7.6311998"
   id="circle179"
   style="display:none;fill:#666666" />
	<circle
   fill="#e0e0e0"
   cx="11.85015"
   cy="11.92798"
   r="6.7999601"
   id="circle181"
   style="display:inline;fill:#1a1a1a;stroke-width:1" />
	<g
   opacity="0.43"
   id="g189"
   style="display:inline">
		<path
   fill="#404040"
   d="m 11.85016,4.74578 c 4.17474,0 7.56128,3.25714 7.62286,7.29614 5.5e-4,-0.03833 0.0057,-0.0755 0.0057,-0.11395 0,-4.2146 -3.41541,-7.63116 -7.6286,-7.63116 -4.21319,0 -7.62866,3.41656 -7.62866,7.63116 0,0.03845 0.00519,0.07562 0.00574,0.11395 0.06158,-4.039 3.44818,-7.29614 7.62292,-7.29614 z"
   id="path183" />
		<path
   opacity="0.28"
   fill="#404040"
   d="m 4.22723,12.04192 c -5.5e-4,0.03723 -0.00574,0.07324 -0.00574,0.1106 0,4.09058 3.41547,7.40668 7.62866,7.40668 -4.17473,-10e-6 -7.56133,-3.35578 -7.62292,-7.51728 z"
   id="path185" />
		<path
   opacity="0.28"
   fill="#404040"
   d="m 11.85016,19.55919 c 4.2132,0 7.6286,-3.3161 7.6286,-7.40668 0,-0.03735 -0.0052,-0.07336 -0.0057,-0.1106 -0.06158,4.16151 -3.44812,7.51728 -7.62286,7.51728 z"
   id="path187" />
	</g>
	
		<linearGradient
   id="SVGID_21_"
   gradientUnits="userSpaceOnUse"
   x1="-1884.86365"
   y1="8.33755"
   x2="-1884.86365"
   y2="19.36582"
   gradientTransform="matrix(-1 0 0 -1 -1873.01343 25.77966)">
		<stop
   offset="0"
   style="stop-color:#FFFEFE"
   id="stop191" />
		<stop
   offset="1"
   style="stop-color:#706C6C"
   id="stop193" />
	</linearGradient>
	<circle
   fill="url(#SVGID_21_)"
   cx="11.85015"
   cy="11.92798"
   r="5.5141301"
   id="circle196"
   style="display:inline" />
	<circle
   cx="11.85015"
   cy="11.92791"
   r="4.8673301"
   id="circle198"
   style="display:inline" />
</g>
</svg>
