<?xml version="1.0" encoding="UTF-8" standalone="no"?>
<!-- Generator: Adobe Illustrator 25.0.0, SVG Export Plug-In . SVG Version: 6.00 Build 0)  -->

<svg
   version="1.0"
   id="svg163547"
   x="0px"
   y="0px"
   width="5.4000001mm"
   height="22mm"
   viewBox="0 0 20.409448 83.14961"
   enable-background="new 0 0 19.84258 76.53516"
   xml:space="preserve"
   sodipodi:docname="BigSlider.svg"
   inkscape:version="1.2.2 (b0a84865, 2022-12-01)"
   xmlns:inkscape="http://www.inkscape.org/namespaces/inkscape"
   xmlns:sodipodi="http://sodipodi.sourceforge.net/DTD/sodipodi-0.dtd"
   xmlns="http://www.w3.org/2000/svg"
   xmlns:svg="http://www.w3.org/2000/svg"><defs
   id="defs1" />
<sodipodi:namedview
   bordercolor="#666666"
   borderopacity="1.0"
   fit-margin-bottom="0"
   fit-margin-left="2"
   fit-margin-right="2"
   fit-margin-top="0"
   id="base"
   inkscape:current-layer="layer1"
   inkscape:cx="27.488591"
   inkscape:cy="25.511454"
   inkscape:document-units="mm"
   inkscape:pageopacity="0.0"
   inkscape:pageshadow="2"
   inkscape:window-height="1190"
   inkscape:window-maximized="0"
   inkscape:window-width="1656"
   inkscape:window-x="159"
   inkscape:window-y="102"
   inkscape:zoom="7.839616"
   pagecolor="#ffffff"
   showgrid="false"
   inkscape:showpageshadow="2"
   inkscape:pagecheckerboard="0"
   inkscape:deskcolor="#d1d1d1">
	</sodipodi:namedview>
<g
   id="layer1"
   transform="translate(-105.35713,-95.267905)"
   inkscape:groupmode="layer"
   inkscape:label="Layer 1">
	<path
   id="path159840-1"
   inkscape:connector-curvature="0"
   d="m 118.87567,98.225505 v 77.252145 c 0,1.07008 -0.61328,1.93755 -1.3698,1.93755 h -3.63322 c -0.75651,0 -1.36978,-0.86747 -1.36978,-1.93755 V 98.225505 c 0,-1.07008 0.61327,-1.937541 1.36978,-1.937541 h 3.63322 c 0.75652,1.1e-5 1.3698,0.867472 1.3698,1.937541 z"
   style="display:inline;fill:#646464;fill-opacity:1;stroke-width:0.891258"
   inkscape:label="gry" /><path
   id="path159840"
   inkscape:connector-curvature="0"
   d="m 118.40103,98.839314 v 76.280426 c 0,1.05662 -0.51507,1.91317 -1.15045,1.91317 h -3.05145 c -0.63537,0 -1.15044,-0.85655 -1.15044,-1.91317 V 98.839314 c 0,-1.05662 0.51507,-1.91317 1.15044,-1.91317 h 3.05145 c 0.63538,1.1e-5 1.15045,0.856561 1.15045,1.91317 z"
   style="display:inline;stroke-width:0.811638"
   inkscape:label="black" />
</g>
</svg>
