<?xml version="1.0" encoding="UTF-8" standalone="no"?>
<!-- Created with Inkscape (http://www.inkscape.org/) -->

<svg
   width="10mm"
   height="10mm"
   viewBox="0 0 10 10"
   version="1.1"
   id="svg1"
   inkscape:version="1.3-dev (77bc73e, 2022-05-18)"
   sodipodi:docname="TablaCircle_1.svg"
   xmlns:inkscape="http://www.inkscape.org/namespaces/inkscape"
   xmlns:sodipodi="http://sodipodi.sourceforge.net/DTD/sodipodi-0.dtd"
   xmlns="http://www.w3.org/2000/svg"
   xmlns:svg="http://www.w3.org/2000/svg">
  <sodipodi:namedview
     id="namedview1"
     pagecolor="#ffffff"
     bordercolor="#666666"
     borderopacity="1.0"
     inkscape:showpageshadow="2"
     inkscape:pageopacity="0.0"
     inkscape:pagecheckerboard="0"
     inkscape:deskcolor="#d1d1d1"
     inkscape:document-units="mm"
     showgrid="false"
     inkscape:zoom="5.2702042"
     inkscape:cx="14.420694"
     inkscape:cy="21.63104"
     inkscape:window-width="1139"
     inkscape:window-height="844"
     inkscape:window-x="0"
     inkscape:window-y="25"
     inkscape:window-maximized="0"
     inkscape:current-layer="layer1" />
  <defs
     id="defs1" />
  <g
     inkscape:label="Layer 1"
     inkscape:groupmode="layer"
     id="layer1">
    <path
       style="opacity:0.76;fill:#0055d4;stroke:#004095;stroke-width:0.264583;stroke-opacity:0.578261;paint-order:stroke fill markers"
       id="path1"
       sodipodi:type="arc"
       sodipodi:cx="5.0705657"
       sodipodi:cy="4.9952602"
       sodipodi:rx="4.7191401"
       sodipodi:ry="4.6438351"
       sodipodi:start="0"
       sodipodi:end="6.1635045"
       sodipodi:open="true"
       sodipodi:arc-type="arc"
       d="M 9.7897058,4.9952602 A 4.7191401,4.6438351 0 0 1 5.2117423,9.6370168 4.7191401,4.6438351 0 0 1 0.35987245,5.2729834 4.7191401,4.6438351 0 0 1 4.6475414,0.37012022 4.7191401,4.6438351 0 0 1 9.7559488,4.4408081" />
    <path
       style="opacity:0.76;fill:#787878;stroke:#004095;stroke-width:0.264583;stroke-opacity:0.578261;paint-order:stroke fill markers;fill-opacity:1"
       id="path2"
       sodipodi:type="arc"
       sodipodi:cx="5.0454636"
       sodipodi:cy="5.0203619"
       sodipodi:rx="4.0915952"
       sodipodi:ry="3.9660859"
       sodipodi:start="0"
       sodipodi:end="6.1635045"
       sodipodi:open="true"
       sodipodi:arc-type="arc"
       d="M 9.1370587,5.0203619 A 4.0915952,3.9660859 0 0 1 5.1678667,8.9846727 4.0915952,3.9660859 0 0 1 0.96119195,5.2575525 4.0915952,3.9660859 0 0 1 4.6786925,1.0702426 4.0915952,3.9660859 0 0 1 9.1077907,4.5468299" />
    <path
       style="opacity:0.76;fill:#646464;fill-opacity:1;stroke:#646464;stroke-width:0.264583;stroke-opacity:0.578261;paint-order:stroke fill markers"
       id="path3"
       sodipodi:type="arc"
       sodipodi:cx="5.045464"
       sodipodi:cy="4.9952602"
       sodipodi:rx="3.0875227"
       sodipodi:ry="2.9369118"
       sodipodi:start="0"
       sodipodi:end="6.1635045"
       sodipodi:open="true"
       sodipodi:arc-type="arc"
       d="M 8.1329868,4.9952602 A 3.0875227,2.9369118 0 0 1 5.1378296,7.9308576 3.0875227,2.9369118 0 0 1 1.9634677,5.1709014 3.0875227,2.9369118 0 0 1 4.7686981,2.0701718 a 3.0875227,2.9369118 0 0 1 3.342203,2.574435" />
    <path
       style="opacity:0.76;fill:#000000;fill-opacity:1;stroke:#646464;stroke-width:0.264583;stroke-opacity:0.578261;paint-order:stroke fill markers"
       id="path4"
       sodipodi:type="arc"
       sodipodi:cx="5.0705657"
       sodipodi:cy="4.9450564"
       sodipodi:rx="1.2550905"
       sodipodi:ry="1.179785"
       sodipodi:start="0"
       sodipodi:end="6.1635045"
       sodipodi:open="true"
       sodipodi:arc-type="arc"
       d="M 6.3256562,4.9450564 A 1.2550905,1.179785 0 0 1 5.1081127,6.1243134 1.2550905,1.179785 0 0 1 3.8177217,5.0156131 1.2550905,1.179785 0 0 1 4.9580592,3.770021 1.2550905,1.179785 0 0 1 6.3166783,4.8041956" />
    <path
       style="opacity:0.76;fill:#000000;fill-opacity:1;stroke:#646464;stroke-width:0.264583;stroke-opacity:0.578261;paint-order:stroke fill markers"
       id="path5"
       sodipodi:type="arc"
       sodipodi:cx="5.0454636"
       sodipodi:cy="5.0203619"
       sodipodi:rx="0.72795248"
       sodipodi:ry="0.7028507"
       sodipodi:start="0"
       sodipodi:end="6.1635045"
       sodipodi:open="true"
       sodipodi:arc-type="arc"
       d="M 5.773416,5.0203619 A 0.72795248,0.7028507 0 0 1 5.0672408,5.722898 0.72795248,0.7028507 0 0 1 4.318814,5.0623957 0.72795248,0.7028507 0 0 1 4.9802098,4.3203407 0.72795248,0.7028507 0 0 1 5.7682089,4.9364448" />
  </g>
</svg>
